<?xml version="1.0" encoding="UTF-8" standalone="no"?>
<svg xmlns="http://www.w3.org/2000/svg" width="256" height="256" viewBox="0 0 256 256">
  <path fill="#E44D26" d="M33.8 5.1h17.6l-4 44.3h-9.6z"/>
  <path fill="#E44D26" d="M33.8 5.1h17.6l-4 44.3h-9.6z"/>
  <path fill="#E44D26" d="M128 208.1l47.9-13.3 11.2-125.4H128V208.1z M128 106.9h24.2l1.6 18.4H128v-18.4z M128 65.4h48l1.6 18.4H128V65.4z"/>
  <path fill="#F16529" d="M128 152.6l-.2.1-24.1-6.5-1.5-17.1h-21.7l3 34 44.3 12.3.2-.1V152.6z"/>
  <path fill="#EBEBEB" d="M127.8 106.9v18.4H102l-1.6-18.4h27.4z M128 65.4v18.4H80.3l-1.6-18.4H128z M128 152.6v22.7l-.2.1-44.1-12.3-3-34h21.7l1.5 17.1 24.1 6.4z"/>
  <path fill="#F16529" d="M33.8 5.1h188.4L206 215.8l-77.9 21.7-77.3-21.7L33.8 5.1z"/>
  <path fill="#EBEBEB" d="M128 186.7V32H47.9l4.8 54.3h75.3V106H58.9l4.7 52.8 64.4 17.9z"/>
  <path fill="#FFFFFF" d="M128 106V86.3h70.3l-6.7 76.7-63.6 17.8v-22.7l34.9-9.7 2.4-26.7H128z M128 32v23h74.8l4.3-23H128z"/>
</svg> 