<?xml version="1.0" encoding="UTF-8" standalone="no"?>
<svg xmlns="http://www.w3.org/2000/svg" width="256" height="256" viewBox="0 0 256 256">
  <path fill="#5382A1" d="M101.3 152.1s-13.3 7.7 9.4 10.4c27.4 3.2 41.4 2.7 71.5-3 0 0 7.9 5 19 9.3-67.6 29-152.9-1.7-99.9-16.7"/>
  <path fill="#5382A1" d="M93 130.8s-14.9 11 7.8 13.4c29.2 3 52.3 3.3 92.3-4.4 0 0 5.5 5.6 14.2 8.7-81.7 23.9-172.6 1.9-114.3-17.7"/>
  <path fill="#E76F00" d="M158 87.3c16.6 19.1-4.4 36.3-4.4 36.3s42.1-21.7 22.8-49c-18-25.4-31.8-38 43-81.5 0 0-117.5 29.3-61.4 94.2"/>
  <path fill="#5382A1" d="M212.3 173.5s9.9 8.1-10.9 14.4c-39.5 12-164.4 15.6-199.1.5-12.5-5.4 10.9-13 18.2-14.5 7.7-1.7 12-1.3 12-1.3-13.8-9.7-89.3 19.1-38.4 27.4 139 22.6 253.3-10.2 218.2-26.5M99.2 104.5s-63.3 15-22.4 20.5c17.2 2.3 51.4 1.8 83.2-1 26-2.3 52.1-7.4 52.1-7.4s-9.2 3.9-15.8 8.5c-63.8 16.8-187 9-151.6-8.1 29.9-14.5 54.5-12.5 54.5-12.5"/>
  <path fill="#5382A1" d="M166.8 189.9c64.9-33.7 34.9-66.2 14-61.8-5.1 1-7.4 2-7.4 2s1.9-3 5.5-4.3c41.3-14.5 73 43-13.3 65.7 0 0 1-1 1.2-1.6"/>
  <path fill="#E76F00" d="M151.9 21.2s36 36-34.1 91.5c-56.2 44.5-12.8 69.9 0 98.9-32.8-29.6-56.9-55.7-40.7-80 23.8-35.5 89.8-52.7 74.8-110.4"/>
  <path fill="#5382A1" d="M108.2 208.6c62.3 4 158-2.2 160.3-31.8 0 0-4.4 11.2-51.4 20-53.2 10-118.8 8.9-157.6 2.4 0 0 8 6.6 48.7 9.4"/>
</svg> 