<?xml version="1.0" encoding="UTF-8" standalone="no"?>
<svg xmlns="http://www.w3.org/2000/svg" width="256" height="256" viewBox="0 0 256 256">
  <path fill="#F7DF1E" d="M0 0h256v256H0z"/>
  <path d="M67.3 213.9l20.6-12.4c4 7 7.6 13 16.3 13 8.3 0 13.6-3.3 13.6-16V124.7h25.4v74.3c0 26.3-15.4 38.2-38 38.2-20.3 0-32.1-10.5-38-23.3"/>
  <path d="M152.4 211.2l20.6-11.9c5.4 8.8 12.5 15.3 24.9 15.3 10.5 0 17.2-5.3 17.2-12.5 0-8.7-6.9-11.8-18.5-16.8l-6.3-2.7c-18.3-7.8-30.5-17.6-30.5-38.2 0-19 14.5-33.5 37.2-33.5 16.2 0 27.8 5.6 36.1 20.3l-19.8 12.7c-4.4-7.8-9-10.9-16.4-10.9-7.5 0-12.2 4.7-12.2 10.9 0 7.6 4.7 10.7 15.6 15.4l6.3 2.7c21.6 9.3 33.8 18.7 33.8 39.9 0 22.8-17.9 35.3-42 35.3-23.5 0-38.8-11.2-46.2-25.9"/>
</svg> 